<?xml version="1.0" encoding="utf-8"?><svg viewBox="0 0 200 96" xmlns="http://www.w3.org/2000/svg" xmlns:xlink="http://www.w3.org/1999/xlink"><style>:root>svg{display:none}:root>svg:target{display:block}</style><svg fill="none" viewBox="0 0 59 57" id="close" xmlns="http://www.w3.org/2000/svg"><path d="m44.25 16.744-2.581-2.494L29.5 26.006 17.331 14.25l-2.581 2.494L26.919 28.5 14.75 40.256l2.581 2.494L29.5 30.994 41.669 42.75l2.581-2.494L32.081 28.5 44.25 16.744Z" fill="#fff"/></svg><svg fill="none" viewBox="0 0 28 20" id="menu" xmlns="http://www.w3.org/2000/svg"><path d="M.667 8.333h20v3.334h-20V8.333ZM.667 0h26.666v3.333H.667V0Zm0 20h12.058v-3.333H.667V20Z" fill="#fff"/></svg><svg fill="none" viewBox="0 0 200 96" id="partners_logo" xmlns="http://www.w3.org/2000/svg"><path d="M61.771 62.765h12.693v4.14h-6.038V96h-6.655V62.765ZM81.993 83.523l1.14-16.617h.382l1.14 16.617h-2.662ZM74.623 96h6.515l.617-8.826h3.138l.62 8.826h6.512l-3.47-33.235H78.094L74.623 96ZM101.554 84.368v6.265c0 .845.654 1.09 1.036 1.09.628 0 1.064-.518 1.064-1.09v-7.736c0-1.036-.191-2.18-2.673-2.18h-2.702v-3.65h2.811c1.882 0 2.564-.436 2.564-2.48v-6.592c0-.572-.436-1.09-1.064-1.09-.382 0-1.036.219-1.036 1.09v5.421h-6.658v-4.712c0-2.316.273-5.94 4.939-5.94h5.511c4.666 0 4.966 3.624 4.966 5.94v5.312c0 3.623-2.538 4.604-4.529 4.522v.327c4.474-.11 4.529 3.323 4.529 4.495v6.701c0 2.343-.3 5.939-4.966 5.939h-5.511c-4.666 0-4.939-3.596-4.939-5.939v-5.693h6.658ZM114.678 62.765h15.416V96h-6.657V66.906h-2.101V96h-6.658V62.765ZM141.118 81.044V66.906h.873c.709 0 1.228.599 1.228 1.661v10.815c0 1.063-.519 1.662-1.228 1.662h-.873ZM134.46 96h6.658V84.695h3.82c4.638 0 4.938-3.596 4.938-5.94V68.705c0-2.316-.3-5.94-4.938-5.94H134.46V96ZM163.001 90.633c0 .572-.437 1.09-1.064 1.09-.382 0-1.037-.245-1.037-1.09V67.995c0-.871.655-1.09 1.037-1.09.627 0 1.064.518 1.064 1.09v22.638Zm-8.759-.572c0 2.343.301 5.939 4.939 5.939h5.539c4.638 0 4.938-3.596 4.938-5.939V68.704c0-2.316-.3-5.94-4.938-5.94h-5.539c-4.638 0-4.939 3.624-4.939 5.94V90.06ZM191.323 62.765H200V96h-6.658V75.16h-.245L189.659 96h-5.321l-3.41-20.84h-.246V96h-6.657V62.765h8.649l4.338 23.373 4.311-23.373ZM53.147 17.326C51.109 8.418 46 1.17 45.297 0c-1.113 1.662-5.187 8.064-7.258 15.146-2.262 7.928-2.595 14.956-1.814 21.848.775 6.92 3.702 14.03 3.702 14.03 1.556 3.705 3.886 7.71 5.403 9.67 2.223-2.887 7.334-11.495 8.927-22.719.887-6.266.925-11.741-1.11-20.65Zm-7.85 41.135c-1.001-1.88-2.557-5.448-2.704-11.006-.038-5.34 2.11-9.943 2.737-10.896.559.953 2.409 4.958 2.63 10.433.15 5.34-1.629 9.562-2.663 11.469Zm7.258-26.016c-.077 3.405-.483 7.001-1.002 9.153.186-3.705-.259-8.908-1.11-12.994-.851-4.06-3.26-10.87-5.184-14.002-1.776 2.996-3.965 8.88-5.11 13.975-1.152 5.094-1.185 11.278-1.185 13.13-.306-1.553-1.07-7.137-.854-12.722.18-4.604 1.26-9.37 1.853-11.55 2.259-7.274 4.816-11.932 5.296-12.668.48.736 3.7 6.484 5.37 12.504 1.661 6.02 1.997 11.796 1.926 15.174Z" fill="#fff" fill-opacity=".5"/><path d="M48.753 62.765H33.258v10.38c.013 0 .024-.028.038-.028 3.65-3.65 9.571-3.65 13.225 0 3.65 3.623 3.65 9.534 0 13.185-.017.027-.033.027-.05.054-.018 0-.037.028-.054.055a18.675 18.675 0 0 1-13.16 5.394c-4.78 0-9.56-1.798-13.205-5.449-6.429-6.401-7.19-16.345-2.29-23.591.66-.98 1.422-1.907 2.29-2.779 3.645-3.65 8.425-5.448 13.206-5.448V29.585C14.889 29.584 0 44.43 0 62.764s14.89 33.208 33.258 33.208c9.577 0 18.204-4.06 24.272-10.516V62.765h-8.777Z" fill="#fff" fill-opacity=".5"/></svg><svg fill="none" viewBox="0 0 51 52" id="star" xmlns="http://www.w3.org/2000/svg"><path d="m25.152 0-7.774 17.123L0 19.853l12.576 13.334L9.603 52l15.55-8.877L40.7 52l-2.973-18.813 12.576-13.316-17.377-2.748L25.152 0Z" fill="#D1A954"/></svg></svg>